<?xml version="1.0" encoding="UTF-8" standalone="no"?>
<svg
   xmlns:dc="http://purl.org/dc/elements/1.1/"
   xmlns:cc="http://creativecommons.org/ns#"
   xmlns:rdf="http://www.w3.org/1999/02/22-rdf-syntax-ns#"
   xmlns:svg="http://www.w3.org/2000/svg"
   xmlns="http://www.w3.org/2000/svg"
   xmlns:sodipodi="http://sodipodi.sourceforge.net/DTD/sodipodi-0.dtd"
   xmlns:inkscape="http://www.inkscape.org/namespaces/inkscape"
   width="93.331863mm"
   height="92.360199mm"
   viewBox="0 0 93.331863 92.360199"
   version="1.1"
   id="svg34"
   inkscape:version="1.0.2-2 (e86c870879, 2021-01-15)"
   sodipodi:docname="logo.svg">
  <defs
     id="defs28">
    <rect
       x="17.953869"
       y="217.5253"
       width="161.20685"
       height="66.901787"
       id="rect69" />
  </defs>
  <sodipodi:namedview
     id="base"
     pagecolor="#ffffff"
     bordercolor="#666666"
     borderopacity="1.0"
     inkscape:pageopacity="0.0"
     inkscape:pageshadow="2"
     inkscape:zoom="1.4"
     inkscape:cx="152.55793"
     inkscape:cy="204.92977"
     inkscape:document-units="mm"
     inkscape:current-layer="layer1"
     inkscape:document-rotation="0"
     showgrid="false"
     inkscape:window-width="2558"
     inkscape:window-height="1401"
     inkscape:window-x="1913"
     inkscape:window-y="0"
     inkscape:window-maximized="0"
     showborder="true"
     fit-margin-top="0"
     fit-margin-left="0"
     fit-margin-right="0"
     fit-margin-bottom="0" />
  <metadata
     id="metadata31">
    <rdf:RDF>
      <cc:Work
         rdf:about="">
        <dc:format>image/svg+xml</dc:format>
        <dc:type
           rdf:resource="http://purl.org/dc/dcmitype/StillImage" />
        <dc:title />
      </cc:Work>
    </rdf:RDF>
  </metadata>
  <g
     inkscape:label="Ebene 1"
     inkscape:groupmode="layer"
     id="layer1"
     transform="translate(-59.443751,-110.96737)">
    <g
       id="g76"
       transform="translate(0.27635042)">
      <path
         id="path4057"
         style="fill:#ffffff;fill-opacity:1;fill-rule:evenodd;stroke:none;stroke-width:0.330729"
         d="m 69.889083,120.4203 c -1.728391,0 -2.580019,1.41619 -3.286456,2.86445 -2.882305,6.93208 -5.789084,13.85424 -6.845763,21.42232 -0.219935,6.64038 -0.545373,13.22387 -0.458722,20.01672 0,4.01538 4.681803,10.18414 8.606566,10.18414 H 151.1208 c 0.53975,0 1.26206,-0.62772 1.26206,-1.13671 l -0.036,-12.89579 c -19.59471,-3.59305 -36.69672,-13.77719 -45.35025,-35.0821 -1.24784,-3.19749 -4.20885,-4.13775 -6.95027,-5.37303 z m -0.237795,4.46253 h 29.14187 c 1.893752,0 3.564272,7.14938 4.935142,10.80922 0.43259,1.186 0.0903,3.09166 -0.82947,3.09166 H 64.990322 c -0.873456,0 -1.23395,-1.55806 -0.869487,-3.00104 1.843485,-3.63438 3.95056,-10.89984 5.530453,-10.89984 z m 40.592042,15.7146 c 2.13155,2.06706 4.41821,4.90273 6.39498,6.20117 v 12.59748 l -5.76328,-2.64716 c -0.54901,-5.3135 -0.59929,-10.73315 -0.6317,-16.15149 z m 9.69301,9.14168 c 2.38357,2.02704 3.36815,2.42359 5.43124,3.93237 l 0.084,9.69202 -5.51259,-2.30716 c -0.12898,-5.3178 0.0337,-5.89525 -0.003,-11.31723 z m -51.516026,3.68333 c 1.911946,0 3.459758,1.55146 3.459758,3.4634 0,1.91195 -1.547812,3.4624 -3.459758,3.4624 -1.915914,0 -3.462403,-1.55045 -3.462403,-3.4624 0,-1.91194 1.546489,-3.4634 3.462403,-3.4634 z m 28.592529,0 c 1.910623,0 3.458437,1.55146 3.458437,3.4634 0,1.91195 -1.547814,3.4624 -3.458437,3.4624 -1.915914,0 -3.463726,-1.55045 -3.463726,-3.4624 0,-1.91194 1.547812,-3.4634 3.463726,-3.4634 z m 31.198347,1.97016 5.3846,2.20001 v 7.96859 c -1.97644,-0.21729 -3.80471,-0.66675 -5.3846,-1.5154 z m 7.61438,3.27091 4.28161,1.10067 v 7.22577 c -1.46116,-0.0645 -2.90049,-0.23912 -4.28161,-0.77655 z m 6.48163,1.84348 3.51002,0.6823 v 6.51503 c -1.21543,0.0751 -2.37695,-0.10186 -3.51002,-0.4187 z m 5.38195,1.03882 2.81781,0.3863 v 6.51503 l -2.81781,-0.47658 z" />
      <path
         id="path4059"
         style="fill:#ffffff;fill-opacity:1;fill-rule:evenodd;stroke:none;stroke-width:0.330729"
         d="m 73.449713,110.9674 c -1.139362,0 -1.104636,2.20927 0,2.20927 h 4.901406 c 4.14569,1.67548 6.594078,4.05805 7.734763,7.2605 h 1.879534 v -0.0116 h 1.860352 c 1.141015,-3.20279 3.589073,-5.57345 7.734763,-7.24893 h 4.790609 c 1.18203,0 1.00244,-2.20927 0,-2.20927 z m 9.973469,2.20927 h 9.039489 c -1.947002,1.64207 -4.057716,3.31126 -4.057716,5.87442 h -0.901898 c 0,-2.57109 -2.123943,-4.22739 -4.079875,-5.87442 z" />
      <path
         id="path4061"
         style="fill:#ffffff;fill-opacity:1;fill-rule:evenodd;stroke:none;stroke-width:0.330729"
         d="m 59.30178,180.29419 h 7.189722 v -3.60065 H 77.32652 v 3.55666 h 15.872685 v -3.56691 h 59.183655 v 3.62115 c -16.66941,0.60987 -33.66327,1.08645 -42.48977,5.06148 H 59.291528 Z" />
    </g>
    <text
       xml:space="preserve"
       style="font-style:normal;font-weight:normal;font-size:10.5833px;line-height:1.25;font-family:sans-serif;fill:#ffffff;fill-opacity:1;stroke:none;stroke-width:0.264583"
       x="57.481422"
       y="203.1622"
       id="text53"><tspan
         id="tspan51"
         x="57.481422"
         y="203.1622"
         style="font-style:normal;font-variant:normal;font-weight:normal;font-stretch:normal;font-size:22.5778px;font-family:Bahnschrift;-inkscape-font-specification:'Bahnschrift, @wght=449,wdth=100.0';font-variant-ligatures:normal;font-variant-caps:normal;font-variant-numeric:normal;font-variant-east-asian:normal;font-variation-settings:'wdth' 100, 'wght' 449;stroke-width:0.264583"
         sodipodi:role="line">BahnPlan</tspan></text>
    <text
       xml:space="preserve"
       id="text67"
       style="font-style:normal;font-weight:normal;font-size:10.5833px;line-height:1.25;font-family:sans-serif;white-space:pre;shape-inside:url(#rect69);fill:#000000;fill-opacity:1;stroke:none;" />
  </g>
</svg>
